<?xml version="1.0" standalone="no"?>
<!DOCTYPE svg PUBLIC "-//W3C//DTD SVG 20010904//EN"
 "http://www.w3.org/TR/2001/REC-SVG-20010904/DTD/svg10.dtd">
<svg version="1.0" xmlns="http://www.w3.org/2000/svg"
 width="600.000000pt" height="600.000000pt" viewBox="0 0 600.000000 600.000000"
 preserveAspectRatio="xMidYMid meet">
<metadata>
Created by potrace 1.11, written by Peter Selinger 2001-2013
</metadata>
<g transform="translate(0.000000,600.000000) scale(0.100000,-0.100000)"
fill="#000000" stroke="none">
<path d="M0 3000 l0 -3000 3000 0 3000 0 0 3000 0 3000 -3000 0 -3000 0 0
-3000z m3795 1378 c33 -15 131 -136 185 -228 56 -96 120 -260 127 -323 4 -44
1 -57 -17 -80 -31 -39 -65 -50 -107 -36 -38 12 -50 32 -83 134 -34 105 -96
225 -156 302 -83 105 -86 110 -86 150 0 29 7 43 31 65 34 30 65 35 106 16z
m-1536 -9 c33 -12 61 -52 61 -89 0 -29 -14 -54 -77 -129 -65 -79 -143 -229
-173 -331 -33 -115 -86 -153 -159 -115 -46 23 -56 63 -38 138 57 226 254 531
348 537 3 0 20 -5 38 -11z m1355 -290 c57 -26 176 -270 176 -361 0 -45 -48
-88 -98 -88 -54 0 -76 26 -111 126 -15 44 -44 108 -64 141 -52 86 -49 145 11
177 33 18 53 19 86 5z m-1163 -19 c28 -15 52 -68 44 -98 -3 -14 -24 -54 -45
-90 -22 -35 -51 -100 -66 -144 -29 -87 -53 -112 -110 -112 -42 0 -81 35 -90
79 -11 63 81 281 147 348 29 29 82 37 120 17z m637 -49 c101 -71 91 -231 -18
-288 -55 -29 -105 -29 -161 0 -122 64 -118 246 6 303 45 21 134 13 173 -15z
m-322 -360 c126 -111 320 -109 453 4 68 58 115 63 164 17 34 -32 37 -90 7
-132 -30 -42 -152 -121 -227 -146 l-68 -23 -5 -291 -5 -292 -33 -29 c-34 -31
-66 -36 -105 -18 -50 23 -52 34 -57 343 l-5 288 -55 17 c-76 24 -127 52 -193
106 -79 64 -93 126 -40 179 46 46 99 39 169 -23z m-439 -144 c8 -8 28 -52 44
-97 16 -46 47 -113 69 -150 55 -91 52 -143 -10 -175 -40 -21 -72 -19 -103 5
-62 49 -157 258 -157 344 0 37 5 48 32 71 27 22 39 26 71 22 22 -3 46 -12 54
-20z m1400 -7 c36 -22 48 -53 41 -108 -11 -78 -101 -266 -150 -312 -34 -31
-93 -27 -129 9 -40 41 -38 77 10 159 22 37 46 85 54 107 8 22 23 62 32 88 13
37 25 52 49 63 42 18 56 17 93 -6z m-1724 -72 c15 -14 35 -56 52 -108 38 -119
103 -241 180 -337 55 -69 65 -87 65 -120 -1 -58 -38 -93 -99 -93 -35 0 -73 30
-130 103 -97 126 -179 290 -216 433 -12 48 -12 61 -1 89 17 40 40 54 88 55 25
0 45 -7 61 -22z m2050 -8 c46 -37 51 -76 21 -171 -49 -159 -116 -282 -221
-411 -65 -79 -102 -97 -156 -74 -41 17 -57 41 -57 89 0 27 12 50 58 106 81 99
138 203 183 334 22 61 39 113 39 114 0 1 12 9 28 17 38 21 75 20 105 -4z
m-1643 -1170 c63 -12 143 -48 185 -83 l29 -25 -58 -71 c-32 -39 -60 -71 -63
-71 -3 0 -23 16 -45 34 -22 19 -53 38 -69 41 -67 15 -129 -23 -150 -93 -16
-56 -4 -107 36 -150 30 -34 38 -37 84 -36 41 0 61 7 99 34 l47 33 57 -64 58
-63 -28 -29 c-15 -16 -54 -43 -87 -60 -56 -30 -67 -32 -160 -32 -85 0 -107 4
-148 23 -115 57 -178 163 -178 301 0 63 5 84 31 137 47 95 129 155 240 174 64
11 62 11 120 0z m-1030 -85 l0 -85 -85 0 -84 0 -3 -62 -3 -63 -105 0 -105 0
-3 63 -3 62 -84 0 -85 0 0 85 0 85 280 0 280 0 0 -85z m580 5 l0 -80 -160 0
-160 0 0 -40 0 -40 145 0 145 0 0 -80 0 -80 -145 0 -145 0 0 -35 0 -35 165 0
165 0 0 -85 0 -85 -267 2 -268 3 -3 153 -3 152 30 0 c16 0 33 -4 36 -10 3 -5
17 -10 30 -10 31 0 50 32 35 60 -13 24 -29 25 -68 3 -57 -32 -62 -20 -62 142
l0 145 265 0 265 0 0 -80z m910 -40 l0 -120 95 0 95 0 0 120 0 120 105 0 105
0 0 -320 0 -321 -102 3 -103 3 -3 113 -3 112 -94 0 -95 0 0 -115 0 -116 -102
3 -103 3 -3 318 -2 317 105 0 105 0 0 -120z m570 -129 c0 -156 -4 -252 -10
-256 -14 -9 -13 -48 2 -63 19 -19 45 -14 62 10 14 20 14 25 1 45 -12 18 -15
68 -15 268 l0 246 43 -3 42 -3 3 -227 2 -228 130 0 130 0 0 -85 0 -85 -235 0
-235 0 0 308 c0 170 3 312 7 315 3 4 21 7 40 7 l33 0 0 -249z m1000 -49 c66
-161 122 -302 125 -313 6 -19 2 -20 -101 -17 l-107 3 -15 43 -14 43 -121 -3
-120 -3 -15 -42 -14 -43 -104 0 -104 0 15 38 c9 20 68 162 132 315 l117 278
104 -3 103 -3 119 -293z m539 288 c81 -14 136 -42 161 -83 38 -62 16 -146 -50
-186 l-31 -18 31 -13 c38 -16 66 -51 81 -100 23 -76 -13 -149 -95 -193 -38
-20 -57 -22 -258 -25 l-218 -4 0 316 0 316 158 0 c86 0 186 -5 221 -10z
m-3434 -301 c0 -7 -8 -15 -17 -17 -18 -3 -25 18 -11 32 10 10 28 1 28 -15z
m-337 -171 l-3 -153 -105 0 -105 0 -3 153 -3 152 111 0 111 0 -3 -152z m2267
-49 c10 -15 -1 -23 -20 -15 -9 3 -13 10 -10 16 8 13 22 13 30 -1z"/>
<path d="M4177 1953 c-15 -43 -27 -84 -27 -90 0 -9 19 -13 60 -13 41 0 60 4
60 13 0 19 -53 167 -60 167 -4 0 -19 -35 -33 -77z"/>
<path d="M4800 2050 l0 -50 56 0 c71 0 94 12 94 50 0 38 -23 50 -94 50 l-56 0
0 -50z"/>
<path d="M4800 1820 l0 -50 68 0 c54 0 72 4 85 18 42 46 3 82 -90 82 l-63 0 0
-50z"/>
</g>
</svg>
