<svg xmlns="http://www.w3.org/2000/svg" viewBox="0 0 226.3 144.4"><defs><style>.a{fill:#6dcecc;}.b{fill:#fff;}.c{fill:#ff8201;}.d{fill:#005a74;}</style></defs><path class="a" d="M563.5,168.9A53,53,0,0,0,551,192.2a5.1,5.1,0,1,1-10-2.4,63.2,63.2,0,0,1,14.9-27.9l1.2-1a5.3,5.3,0,0,1,6.1.7A5.1,5.1,0,0,1,563.5,168.9Z" transform="translate(-486.8 -159.6)"/><path class="a" d="M564.6,178.2a5.6,5.6,0,0,1,1.6-1.5,5.2,5.2,0,0,1,6.8,7.4,35.9,35.9,0,0,0-5.5,12,5.1,5.1,0,0,1-10-2.4A42.7,42.7,0,0,1,564.6,178.2Z" transform="translate(-486.8 -159.6)"/><path class="a" d="M653.8,195.2a5.1,5.1,0,0,1-6.2-3.8,52.7,52.7,0,0,0-12.4-23.2,5.1,5.1,0,0,1,6.4-7.9l1.2,1a63,63,0,0,1,15,27.8A5.5,5.5,0,0,1,653.8,195.2Z" transform="translate(-486.8 -159.6)"/><path class="a" d="M626.7,176.2a5.1,5.1,0,0,1,5.5-.3,4.2,4.2,0,0,1,1.6,1.5A45,45,0,0,1,641,193a5.1,5.1,0,0,1-10,2.4,35.9,35.9,0,0,0-5.5-12A5.3,5.3,0,0,1,626.7,176.2Z" transform="translate(-486.8 -159.6)"/><path class="a" d="M562.6,235.3A53,53,0,0,1,550.1,212a5.1,5.1,0,1,0-10,2.4A63.2,63.2,0,0,0,555,242.3l1.2,1a5.3,5.3,0,0,0,6.1-.7A5.1,5.1,0,0,0,562.6,235.3Z" transform="translate(-486.8 -159.6)"/><path class="a" d="M625.9,228a5.1,5.1,0,0,0,5.5.3,4.2,4.2,0,0,0,1.6-1.5,45,45,0,0,0,7.1-15.6,5.1,5.1,0,0,0-10-2.4,35.9,35.9,0,0,1-5.5,12A5.3,5.3,0,0,0,625.9,228Z" transform="translate(-486.8 -159.6)"/><path class="a" d="M563.8,226a5.6,5.6,0,0,0,1.6,1.5,5.2,5.2,0,0,0,6.8-7.4,35.9,35.9,0,0,1-5.5-12,5.1,5.1,0,0,0-10,2.4A42.7,42.7,0,0,0,563.8,226Z" transform="translate(-486.8 -159.6)"/><path class="a" d="M653,209a5.1,5.1,0,0,0-6.2,3.8A52.7,52.7,0,0,1,634.3,236a5.1,5.1,0,0,0,6.4,7.9l1.2-1a63,63,0,0,0,15-27.8A5.5,5.5,0,0,0,653,209Z" transform="translate(-486.8 -159.6)"/><path class="b" d="M620,204a5.1,5.1,0,0,0-7.5-7,18,18,0,0,1-26.1,0,5.1,5.1,0,0,0-7.5,7,28.4,28.4,0,0,0,15.6,8.4v28.5a4.9,4.9,0,0,0,9.7,0V212.4A28,28,0,0,0,620,204Z" transform="translate(-486.8 -159.6)"/><circle class="c" cx="112.6" cy="27" r="9"/><polygon class="b" points="29.3 119.8 29.3 111.2 0 111.2 0 119.8 9.2 119.8 9.2 144 20 144 20 119.8 29.3 119.8"/><polygon class="b" points="59.3 119.4 59.3 111.2 31.8 111.2 31.8 144 59.7 144 59.7 135.7 42.6 135.7 42.6 131.7 57.8 131.7 57.8 123.5 42.6 123.5 42.6 119.4 59.3 119.4"/><path class="b" d="M566.6,270.4c-10.2,0-17.6,7-17.6,16.6s7.2,16.9,17.2,16.9a20.1,20.1,0,0,0,14.1-6.5l-6.2-6.7c-2.1,2.3-5.1,3.7-7.4,3.7-3.9,0-6.7-3.2-6.7-7.6s2.8-7.5,6.7-7.5,5.4,1.7,7.4,4.4l6.2-7.4A19.5,19.5,0,0,0,566.6,270.4Z" transform="translate(-486.8 -159.6)"/><polygon class="b" points="127.3 144 127.3 111.2 116.5 111.2 116.5 123.9 106.4 123.9 106.4 111.2 95.7 111.2 95.7 144 106.4 144 106.4 132.1 116.5 132.1 116.5 144 127.3 144"/><polygon class="c" points="142.6 134.9 142.6 111.2 131.9 111.2 131.9 144 156.2 144 156.2 134.9 142.6 134.9"/><path class="c" d="M665.3,291.1h-6.8l3.4-9.6Zm2.6,7.8,1.6,4.6H681l-13.2-32.7h-11L643,303.5h11l1.7-4.6h12.2Z" transform="translate(-486.8 -159.6)"/><path class="c" d="M693.5,290.6h5.1c2,0,3.3.9,3.3,2.4s-1.3,2.6-3.3,2.6h-5.1v-5Zm0-11.9h5.1a2.2,2.2,0,0,1,2.5,2.3,2.3,2.3,0,0,1-2.5,2.4h-5.1v-4.7Zm-10.7-7.9v32.7h17.2c7.9,0,13.1-3.6,13.1-9.2a8.2,8.2,0,0,0-6.4-8.3,7.4,7.4,0,0,0,5.5-7c0-5-5.1-8.3-12.9-8.3H682.8Z" transform="translate(-486.8 -159.6)"/><path class="d" d="M523.6,285.9a1,1,0,1,0,1,1A1,1,0,0,0,523.6,285.9Zm0-1.2a2.1,2.1,0,1,1-2.2,2.1A2.2,2.2,0,0,1,523.6,284.7Z" transform="translate(-486.8 -159.6)"/><rect class="d" x="7.2" y="126.3" width="28.5" height="1.93"/><path class="d" d="M624.9,298.6a1,1,0,1,0-1,1A1,1,0,0,0,624.9,298.6Zm1.2,0a2.2,2.2,0,1,1-2.2-2.1,2.2,2.2,0,0,1,2.2,2.1h0Z" transform="translate(-486.8 -159.6)"/><rect class="d" x="136" y="111" width="2" height="27.07"/></svg>